<?xml version="1.0" encoding="UTF-8" standalone="no"?>
<!DOCTYPE svg PUBLIC "-//W3C//DTD SVG 1.1//EN"
 "http://www.w3.org/Graphics/SVG/1.1/DTD/svg11.dtd">
<!-- Generated by graphviz version 2.38.0 (20140413.2041)
 -->
<!-- Title: Modules/ITS/src/TrendingTaskITSThr.cxx Pages: 1 -->
<svg width="2086pt" height="307pt"
 viewBox="0.00 0.00 2085.50 307.00" xmlns="http://www.w3.org/2000/svg" xmlns:xlink="http://www.w3.org/1999/xlink">
<g id="graph0" class="graph" transform="scale(1 1) rotate(0) translate(4 303)">
<title>Modules/ITS/src/TrendingTaskITSThr.cxx</title>
<!-- Node1 -->
<g id="node1" class="node"><title>Node1</title>
<polygon fill="#bfbfbf" stroke="black" points="1018,-268.5 1018,-298.5 1147,-298.5 1147,-268.5 1018,-268.5"/>
<text text-anchor="start" x="1026" y="-286.5" font-family="Helvetica,sans-Serif" font-size="10.00">Modules/ITS/src/Trending</text>
<text text-anchor="middle" x="1082.5" y="-275.5" font-family="Helvetica,sans-Serif" font-size="10.00">TaskITSThr.cxx</text>
</g>
<!-- Node2 -->
<g id="node2" class="node"><title>Node2</title>
<g id="a_node2"><a xlink:href="TrendingTaskITSThr_8h.html" target="_top" xlink:title="ITS/TrendingTaskITSThr.h">
<polygon fill="none" stroke="black" points="1315,-207 1315,-226 1448,-226 1448,-207 1315,-207"/>
<text text-anchor="middle" x="1381.5" y="-214" font-family="Helvetica,sans-Serif" font-size="10.00">ITS/TrendingTaskITSThr.h</text>
</a>
</g>
</g>
<!-- Node1&#45;&gt;Node2 -->
<g id="edge1" class="edge"><title>Node1&#45;&gt;Node2</title>
<path fill="none" stroke="midnightblue" d="M1147.01,-268.476C1202.58,-256.395 1281.61,-239.215 1332.23,-228.211"/>
<polygon fill="midnightblue" stroke="midnightblue" points="1333.24,-231.573 1342.27,-226.029 1331.75,-224.733 1333.24,-231.573"/>
</g>
<!-- Node13 -->
<g id="node13" class="node"><title>Node13</title>
<g id="a_node13"><a xlink:href="Reductor_8h.html" target="_top" xlink:title="QualityControl/Reductor.h">
<polygon fill="none" stroke="black" points="961.5,-140 961.5,-159 1091.5,-159 1091.5,-140 961.5,-140"/>
<text text-anchor="middle" x="1026.5" y="-147" font-family="Helvetica,sans-Serif" font-size="10.00">QualityControl/Reductor.h</text>
</a>
</g>
</g>
<!-- Node1&#45;&gt;Node13 -->
<g id="edge57" class="edge"><title>Node1&#45;&gt;Node13</title>
<path fill="none" stroke="midnightblue" d="M1069.8,-268.468C1061.73,-258.845 1051.67,-245.432 1045.5,-232 1036.23,-211.834 1031.26,-186.717 1028.76,-169.737"/>
<polygon fill="midnightblue" stroke="midnightblue" points="1032.18,-168.897 1027.4,-159.443 1025.24,-169.815 1032.18,-168.897"/>
</g>
<!-- Node22 -->
<g id="node22" class="node"><title>Node22</title>
<g id="a_node22"><a xlink:href="RootClassFactory_8h.html" target="_top" xlink:title="QualityControl/RootClass\lFactory.h">
<polygon fill="none" stroke="black" points="395.5,-201.5 395.5,-231.5 523.5,-231.5 523.5,-201.5 395.5,-201.5"/>
<text text-anchor="start" x="403.5" y="-219.5" font-family="Helvetica,sans-Serif" font-size="10.00">QualityControl/RootClass</text>
<text text-anchor="middle" x="459.5" y="-208.5" font-family="Helvetica,sans-Serif" font-size="10.00">Factory.h</text>
</a>
</g>
</g>
<!-- Node1&#45;&gt;Node22 -->
<g id="edge27" class="edge"><title>Node1&#45;&gt;Node22</title>
<path fill="none" stroke="midnightblue" d="M1017.88,-275.758C901.472,-263.613 657.201,-238.127 533.969,-225.27"/>
<polygon fill="midnightblue" stroke="midnightblue" points="534.178,-221.773 523.869,-224.216 533.452,-228.735 534.178,-221.773"/>
</g>
<!-- Node28 -->
<g id="node28" class="node"><title>Node28</title>
<g id="a_node28"><a xlink:href="QcInfoLogger_8h.html" target="_top" xlink:title="QualityControl/QcInfoLogger.h">
<polygon fill="none" stroke="black" points="0,-140 0,-159 149,-159 149,-140 0,-140"/>
<text text-anchor="middle" x="74.5" y="-147" font-family="Helvetica,sans-Serif" font-size="10.00">QualityControl/QcInfoLogger.h</text>
</a>
</g>
</g>
<!-- Node1&#45;&gt;Node28 -->
<g id="edge56" class="edge"><title>Node1&#45;&gt;Node28</title>
<path fill="none" stroke="midnightblue" d="M1017.75,-281.747C894.187,-279.44 616.588,-270.069 386.5,-232 284.635,-215.146 167.612,-180.277 110.14,-162.097"/>
<polygon fill="midnightblue" stroke="midnightblue" points="111.038,-158.71 100.448,-159.011 108.914,-165.38 111.038,-158.71"/>
</g>
<!-- Node30 -->
<g id="node30" class="node"><title>Node30</title>
<g id="a_node30"><a xlink:href="DatabaseInterface_8h.html" target="_top" xlink:title="QualityControl/DatabaseInterface.h">
<polygon fill="none" stroke="black" points="1054.5,-207 1054.5,-226 1224.5,-226 1224.5,-207 1054.5,-207"/>
<text text-anchor="middle" x="1139.5" y="-214" font-family="Helvetica,sans-Serif" font-size="10.00">QualityControl/DatabaseInterface.h</text>
</a>
</g>
</g>
<!-- Node1&#45;&gt;Node30 -->
<g id="edge36" class="edge"><title>Node1&#45;&gt;Node30</title>
<path fill="none" stroke="midnightblue" d="M1094.87,-268.396C1103.76,-258.261 1115.76,-244.567 1125.09,-233.937"/>
<polygon fill="midnightblue" stroke="midnightblue" points="1127.91,-236.021 1131.88,-226.195 1122.65,-231.406 1127.91,-236.021"/>
</g>
<!-- Node35 -->
<g id="node35" class="node"><title>Node35</title>
<g id="a_node35"><a xlink:href="MonitorObject_8h.html" target="_top" xlink:title="QualityControl/MonitorObject.h">
<polygon fill="none" stroke="black" points="588,-140 588,-159 739,-159 739,-140 588,-140"/>
<text text-anchor="middle" x="663.5" y="-147" font-family="Helvetica,sans-Serif" font-size="10.00">QualityControl/MonitorObject.h</text>
</a>
</g>
</g>
<!-- Node1&#45;&gt;Node35 -->
<g id="edge55" class="edge"><title>Node1&#45;&gt;Node35</title>
<path fill="none" stroke="midnightblue" d="M1038.06,-268.499C954.911,-242.305 777.305,-186.353 700.337,-162.105"/>
<polygon fill="midnightblue" stroke="midnightblue" points="701.185,-158.703 690.596,-159.036 699.082,-165.379 701.185,-158.703"/>
</g>
<!-- Node36 -->
<g id="node36" class="node"><title>Node36</title>
<polygon fill="none" stroke="#bfbfbf" points="1466,-207 1466,-226 1531,-226 1531,-207 1466,-207"/>
<text text-anchor="middle" x="1498.5" y="-214" font-family="Helvetica,sans-Serif" font-size="10.00">TCanvas.h</text>
</g>
<!-- Node1&#45;&gt;Node36 -->
<g id="edge58" class="edge"><title>Node1&#45;&gt;Node36</title>
<path fill="none" stroke="midnightblue" d="M1147.28,-277.854C1222.63,-271.514 1350.38,-257.862 1457.5,-232 1460.73,-231.22 1464.06,-230.28 1467.36,-229.258"/>
<polygon fill="midnightblue" stroke="midnightblue" points="1468.67,-232.511 1477.05,-226.023 1466.45,-225.871 1468.67,-232.511"/>
</g>
<!-- Node37 -->
<g id="node37" class="node"><title>Node37</title>
<polygon fill="none" stroke="#bfbfbf" points="1549.5,-207 1549.5,-226 1593.5,-226 1593.5,-207 1549.5,-207"/>
<text text-anchor="middle" x="1571.5" y="-214" font-family="Helvetica,sans-Serif" font-size="10.00">TH1.h</text>
</g>
<!-- Node1&#45;&gt;Node37 -->
<g id="edge59" class="edge"><title>Node1&#45;&gt;Node37</title>
<path fill="none" stroke="midnightblue" d="M1147.1,-281.983C1236.95,-279.786 1403.98,-270.321 1540.5,-232 1542.43,-231.458 1544.39,-230.807 1546.34,-230.085"/>
<polygon fill="midnightblue" stroke="midnightblue" points="1547.96,-233.197 1555.79,-226.061 1545.22,-226.757 1547.96,-233.197"/>
</g>
<!-- Node3 -->
<g id="node3" class="node"><title>Node3</title>
<g id="a_node3"><a xlink:href="TrendingTaskConfigITS_8h_source.html" target="_top" xlink:title="ITS/TrendingTaskConfigITS.h">
<polygon fill="none" stroke="black" points="1702,-140 1702,-159 1849,-159 1849,-140 1702,-140"/>
<text text-anchor="middle" x="1775.5" y="-147" font-family="Helvetica,sans-Serif" font-size="10.00">ITS/TrendingTaskConfigITS.h</text>
</a>
</g>
</g>
<!-- Node2&#45;&gt;Node3 -->
<g id="edge2" class="edge"><title>Node2&#45;&gt;Node3</title>
<path fill="none" stroke="midnightblue" d="M1424.86,-206.945C1435.52,-204.92 1446.91,-202.821 1457.5,-201 1561.63,-183.096 1588.23,-182.093 1692.5,-165 1700.7,-163.656 1709.34,-162.195 1717.83,-160.735"/>
<polygon fill="midnightblue" stroke="midnightblue" points="1718.43,-164.183 1727.69,-159.029 1717.24,-157.286 1718.43,-164.183"/>
</g>
<!-- Node6 -->
<g id="node6" class="node"><title>Node6</title>
<polygon fill="none" stroke="#bfbfbf" points="1137,-6 1137,-25 1178,-25 1178,-6 1137,-6"/>
<text text-anchor="middle" x="1157.5" y="-13" font-family="Helvetica,sans-Serif" font-size="10.00">string</text>
</g>
<!-- Node2&#45;&gt;Node6 -->
<g id="edge25" class="edge"><title>Node2&#45;&gt;Node6</title>
<path fill="none" stroke="midnightblue" d="M1376.44,-206.889C1366.19,-190.203 1341.3,-153.404 1310.5,-134 1259.77,-102.045 1223,-140.289 1180.5,-98 1163.84,-81.4253 1159.02,-53.7791 1157.75,-35.3466"/>
<polygon fill="midnightblue" stroke="midnightblue" points="1161.24,-35.0923 1157.34,-25.2417 1154.25,-35.3748 1161.24,-35.0923"/>
</g>
<!-- Node8 -->
<g id="node8" class="node"><title>Node8</title>
<g id="a_node8"><a xlink:href="PostProcessingInterface_8h.html" target="_top" xlink:title="QualityControl/PostProcessing\lInterface.h">
<polygon fill="none" stroke="black" points="1358,-134.5 1358,-164.5 1509,-164.5 1509,-134.5 1358,-134.5"/>
<text text-anchor="start" x="1366" y="-152.5" font-family="Helvetica,sans-Serif" font-size="10.00">QualityControl/PostProcessing</text>
<text text-anchor="middle" x="1433.5" y="-141.5" font-family="Helvetica,sans-Serif" font-size="10.00">Interface.h</text>
</a>
</g>
</g>
<!-- Node2&#45;&gt;Node8 -->
<g id="edge9" class="edge"><title>Node2&#45;&gt;Node8</title>
<path fill="none" stroke="midnightblue" d="M1388.51,-206.734C1395.47,-198.034 1406.42,-184.345 1415.78,-172.651"/>
<polygon fill="midnightblue" stroke="midnightblue" points="1418.71,-174.584 1422.23,-164.589 1413.25,-170.211 1418.71,-174.584"/>
</g>
<!-- Node2&#45;&gt;Node13 -->
<g id="edge17" class="edge"><title>Node2&#45;&gt;Node13</title>
<path fill="none" stroke="midnightblue" d="M1334.72,-206.936C1269.85,-195.058 1152.71,-173.608 1083.02,-160.849"/>
<polygon fill="midnightblue" stroke="midnightblue" points="1083.56,-157.39 1073.1,-159.032 1082.3,-164.276 1083.56,-157.39"/>
</g>
<!-- Node15 -->
<g id="node15" class="node"><title>Node15</title>
<polygon fill="none" stroke="#bfbfbf" points="1633.5,-140 1633.5,-159 1683.5,-159 1683.5,-140 1633.5,-140"/>
<text text-anchor="middle" x="1658.5" y="-147" font-family="Helvetica,sans-Serif" font-size="10.00">TAxis.h</text>
</g>
<!-- Node2&#45;&gt;Node15 -->
<g id="edge19" class="edge"><title>Node2&#45;&gt;Node15</title>
<path fill="none" stroke="midnightblue" d="M1424.92,-206.962C1489.6,-194.171 1605.69,-170.901 1624.5,-165 1626.64,-164.329 1628.83,-163.571 1631.01,-162.762"/>
<polygon fill="midnightblue" stroke="midnightblue" points="1632.42,-165.97 1640.4,-159.005 1629.81,-159.472 1632.42,-165.97"/>
</g>
<!-- Node16 -->
<g id="node16" class="node"><title>Node16</title>
<polygon fill="none" stroke="#bfbfbf" points="1867.5,-140 1867.5,-159 1921.5,-159 1921.5,-140 1867.5,-140"/>
<text text-anchor="middle" x="1894.5" y="-147" font-family="Helvetica,sans-Serif" font-size="10.00">TColor.h</text>
</g>
<!-- Node2&#45;&gt;Node16 -->
<g id="edge20" class="edge"><title>Node2&#45;&gt;Node16</title>
<path fill="none" stroke="midnightblue" d="M1422.4,-206.928C1433.73,-204.763 1446.06,-202.601 1457.5,-201 1634.71,-176.202 1684.53,-206.876 1858.5,-165 1861.17,-164.357 1863.91,-163.551 1866.61,-162.65"/>
<polygon fill="midnightblue" stroke="midnightblue" points="1868.01,-165.865 1876.16,-159.094 1865.56,-159.306 1868.01,-165.865"/>
</g>
<!-- Node17 -->
<g id="node17" class="node"><title>Node17</title>
<polygon fill="none" stroke="#bfbfbf" points="1940,-140 1940,-159 1997,-159 1997,-140 1940,-140"/>
<text text-anchor="middle" x="1968.5" y="-147" font-family="Helvetica,sans-Serif" font-size="10.00">TGraph.h</text>
</g>
<!-- Node2&#45;&gt;Node17 -->
<g id="edge21" class="edge"><title>Node2&#45;&gt;Node17</title>
<path fill="none" stroke="midnightblue" d="M1421.59,-206.976C1433.14,-204.759 1445.78,-202.559 1457.5,-201 1666.49,-173.2 1724.76,-211.06 1930.5,-165 1933.5,-164.328 1936.59,-163.464 1939.63,-162.493"/>
<polygon fill="midnightblue" stroke="midnightblue" points="1940.86,-165.774 1949.11,-159.132 1938.52,-159.176 1940.86,-165.774"/>
</g>
<!-- Node18 -->
<g id="node18" class="node"><title>Node18</title>
<polygon fill="none" stroke="#bfbfbf" points="2015.5,-140 2015.5,-159 2077.5,-159 2077.5,-140 2015.5,-140"/>
<text text-anchor="middle" x="2046.5" y="-147" font-family="Helvetica,sans-Serif" font-size="10.00">TLegend.h</text>
</g>
<!-- Node2&#45;&gt;Node18 -->
<g id="edge22" class="edge"><title>Node2&#45;&gt;Node18</title>
<path fill="none" stroke="midnightblue" d="M1421.19,-206.972C1432.84,-204.728 1445.64,-202.514 1457.5,-201 1700.05,-170.028 1767.18,-215.166 2006.5,-165 2009.93,-164.281 2013.46,-163.331 2016.94,-162.259"/>
<polygon fill="midnightblue" stroke="midnightblue" points="2018.14,-165.549 2026.47,-159.011 2015.88,-158.923 2018.14,-165.549"/>
</g>
<!-- Node19 -->
<g id="node19" class="node"><title>Node19</title>
<polygon fill="none" stroke="#bfbfbf" points="1565.5,-140 1565.5,-159 1615.5,-159 1615.5,-140 1565.5,-140"/>
<text text-anchor="middle" x="1590.5" y="-147" font-family="Helvetica,sans-Serif" font-size="10.00">TTree.h</text>
</g>
<!-- Node2&#45;&gt;Node19 -->
<g id="edge23" class="edge"><title>Node2&#45;&gt;Node19</title>
<path fill="none" stroke="midnightblue" d="M1412.41,-206.994C1446.62,-197.421 1503.32,-181.094 1551.5,-165 1553.9,-164.199 1556.37,-163.346 1558.85,-162.47"/>
<polygon fill="midnightblue" stroke="midnightblue" points="1560.11,-165.737 1568.32,-159.041 1557.72,-159.155 1560.11,-165.737"/>
</g>
<!-- Node20 -->
<g id="node20" class="node"><title>Node20</title>
<polygon fill="none" stroke="#bfbfbf" points="1249.5,-140 1249.5,-159 1301.5,-159 1301.5,-140 1249.5,-140"/>
<text text-anchor="middle" x="1275.5" y="-147" font-family="Helvetica,sans-Serif" font-size="10.00">memory</text>
</g>
<!-- Node2&#45;&gt;Node20 -->
<g id="edge24" class="edge"><title>Node2&#45;&gt;Node20</title>
<path fill="none" stroke="midnightblue" d="M1367.2,-206.734C1349.48,-195.867 1319.07,-177.216 1298.16,-164.393"/>
<polygon fill="midnightblue" stroke="midnightblue" points="1299.92,-161.371 1289.57,-159.127 1296.26,-167.339 1299.92,-161.371"/>
</g>
<!-- Node21 -->
<g id="node21" class="node"><title>Node21</title>
<polygon fill="none" stroke="#bfbfbf" points="1148,-140 1148,-159 1231,-159 1231,-140 1148,-140"/>
<text text-anchor="middle" x="1189.5" y="-147" font-family="Helvetica,sans-Serif" font-size="10.00">unordered_map</text>
</g>
<!-- Node2&#45;&gt;Node21 -->
<g id="edge26" class="edge"><title>Node2&#45;&gt;Node21</title>
<path fill="none" stroke="midnightblue" d="M1356,-206.869C1322.2,-195.424 1262.4,-175.181 1224.42,-162.322"/>
<polygon fill="midnightblue" stroke="midnightblue" points="1225.39,-158.955 1214.8,-159.064 1223.15,-165.586 1225.39,-158.955"/>
</g>
<!-- Node4 -->
<g id="node4" class="node"><title>Node4</title>
<g id="a_node4"><a xlink:href="PostProcessingConfig_8h.html" target="_top" xlink:title="QualityControl/PostProcessing\lConfig.h">
<polygon fill="none" stroke="black" points="1608,-67.5 1608,-97.5 1759,-97.5 1759,-67.5 1608,-67.5"/>
<text text-anchor="start" x="1616" y="-85.5" font-family="Helvetica,sans-Serif" font-size="10.00">QualityControl/PostProcessing</text>
<text text-anchor="middle" x="1683.5" y="-74.5" font-family="Helvetica,sans-Serif" font-size="10.00">Config.h</text>
</a>
</g>
</g>
<!-- Node3&#45;&gt;Node4 -->
<g id="edge3" class="edge"><title>Node3&#45;&gt;Node4</title>
<path fill="none" stroke="midnightblue" d="M1763.09,-139.734C1750.06,-130.527 1729.12,-115.733 1711.99,-103.629"/>
<polygon fill="midnightblue" stroke="midnightblue" points="1713.63,-100.501 1703.44,-97.589 1709.59,-106.218 1713.63,-100.501"/>
</g>
<!-- Node5 -->
<g id="node5" class="node"><title>Node5</title>
<polygon fill="none" stroke="#bfbfbf" points="1765.5,-6 1765.5,-25 1809.5,-25 1809.5,-6 1765.5,-6"/>
<text text-anchor="middle" x="1787.5" y="-13" font-family="Helvetica,sans-Serif" font-size="10.00">vector</text>
</g>
<!-- Node3&#45;&gt;Node5 -->
<g id="edge8" class="edge"><title>Node3&#45;&gt;Node5</title>
<path fill="none" stroke="midnightblue" d="M1781.68,-139.711C1788.09,-130.022 1797.69,-113.717 1801.5,-98 1806.71,-76.4822 1800.57,-51.3129 1794.85,-34.7005"/>
<polygon fill="midnightblue" stroke="midnightblue" points="1798.06,-33.2881 1791.28,-25.1439 1791.5,-35.7364 1798.06,-33.2881"/>
</g>
<!-- Node3&#45;&gt;Node6 -->
<g id="edge7" class="edge"><title>Node3&#45;&gt;Node6</title>
<path fill="none" stroke="midnightblue" d="M1728.59,-139.944C1716.82,-137.897 1704.21,-135.789 1692.5,-134 1570.65,-115.389 1530.99,-146.102 1417.5,-98 1397.11,-89.3594 1398.46,-76.5937 1378.5,-67 1314.93,-36.4379 1232.05,-23.9169 1188.06,-19.1555"/>
<polygon fill="midnightblue" stroke="midnightblue" points="1188.3,-15.6626 1178,-18.1302 1187.59,-22.6265 1188.3,-15.6626"/>
</g>
<!-- Node4&#45;&gt;Node5 -->
<g id="edge4" class="edge"><title>Node4&#45;&gt;Node5</title>
<path fill="none" stroke="midnightblue" d="M1706.07,-67.396C1723.51,-56.4956 1747.53,-41.4787 1764.97,-30.5835"/>
<polygon fill="midnightblue" stroke="midnightblue" points="1767.26,-33.275 1773.89,-25.007 1763.55,-27.339 1767.26,-33.275"/>
</g>
<!-- Node4&#45;&gt;Node6 -->
<g id="edge5" class="edge"><title>Node4&#45;&gt;Node6</title>
<path fill="none" stroke="midnightblue" d="M1607.86,-72.1525C1490.32,-57.6282 1268.95,-30.2724 1188.08,-20.2784"/>
<polygon fill="midnightblue" stroke="midnightblue" points="1188.41,-16.7929 1178.05,-19.04 1187.55,-23.74 1188.41,-16.7929"/>
</g>
<!-- Node7 -->
<g id="node7" class="node"><title>Node7</title>
<polygon fill="none" stroke="#bfbfbf" points="1585,-0.5 1585,-30.5 1686,-30.5 1686,-0.5 1585,-0.5"/>
<text text-anchor="start" x="1593" y="-18.5" font-family="Helvetica,sans-Serif" font-size="10.00">boost/property_tree</text>
<text text-anchor="middle" x="1635.5" y="-7.5" font-family="Helvetica,sans-Serif" font-size="10.00">/ptree_fwd.hpp</text>
</g>
<!-- Node4&#45;&gt;Node7 -->
<g id="edge6" class="edge"><title>Node4&#45;&gt;Node7</title>
<path fill="none" stroke="midnightblue" d="M1673.08,-67.396C1666.92,-59.0486 1658.97,-48.2871 1651.98,-38.8113"/>
<polygon fill="midnightblue" stroke="midnightblue" points="1654.65,-36.5417 1645.89,-30.5765 1649.02,-40.7 1654.65,-36.5417"/>
</g>
<!-- Node8&#45;&gt;Node6 -->
<g id="edge10" class="edge"><title>Node8&#45;&gt;Node6</title>
<path fill="none" stroke="midnightblue" d="M1361.1,-134.491C1302.19,-122.648 1226.83,-106.32 1214.5,-98 1191.07,-82.1921 1174.3,-53.2792 1165.25,-34.4829"/>
<polygon fill="midnightblue" stroke="midnightblue" points="1168.36,-32.8713 1161.02,-25.2289 1161.99,-35.7792 1168.36,-32.8713"/>
</g>
<!-- Node8&#45;&gt;Node7 -->
<g id="edge12" class="edge"><title>Node8&#45;&gt;Node7</title>
<path fill="none" stroke="midnightblue" d="M1483.39,-134.448C1507.92,-126.144 1537.14,-114.073 1560.5,-98 1584.05,-81.7948 1605.54,-56.9244 1619.42,-38.919"/>
<polygon fill="midnightblue" stroke="midnightblue" points="1622.39,-40.796 1625.6,-30.6995 1616.8,-36.5898 1622.39,-40.796"/>
</g>
<!-- Node9 -->
<g id="node9" class="node"><title>Node9</title>
<polygon fill="none" stroke="#bfbfbf" points="1223.5,-73 1223.5,-92 1369.5,-92 1369.5,-73 1223.5,-73"/>
<text text-anchor="middle" x="1296.5" y="-80" font-family="Helvetica,sans-Serif" font-size="10.00">Framework/ServiceRegistry.h</text>
</g>
<!-- Node8&#45;&gt;Node9 -->
<g id="edge11" class="edge"><title>Node8&#45;&gt;Node9</title>
<path fill="none" stroke="midnightblue" d="M1403.77,-134.396C1379.95,-123.092 1346.79,-107.361 1323.67,-96.3903"/>
<polygon fill="midnightblue" stroke="midnightblue" points="1324.97,-93.1314 1314.43,-92.007 1321.96,-99.4557 1324.97,-93.1314"/>
</g>
<!-- Node10 -->
<g id="node10" class="node"><title>Node10</title>
<g id="a_node10"><a xlink:href="Triggers_8h.html" target="_top" xlink:title="QualityControl/Triggers.h">
<polygon fill="none" stroke="black" points="1426,-73 1426,-92 1551,-92 1551,-73 1426,-73"/>
<text text-anchor="middle" x="1488.5" y="-80" font-family="Helvetica,sans-Serif" font-size="10.00">QualityControl/Triggers.h</text>
</a>
</g>
</g>
<!-- Node8&#45;&gt;Node10 -->
<g id="edge13" class="edge"><title>Node8&#45;&gt;Node10</title>
<path fill="none" stroke="midnightblue" d="M1445.43,-134.396C1454.01,-124.261 1465.6,-110.567 1474.59,-99.9368"/>
<polygon fill="midnightblue" stroke="midnightblue" points="1477.36,-102.089 1481.14,-92.1945 1472.01,-97.5676 1477.36,-102.089"/>
</g>
<!-- Node10&#45;&gt;Node6 -->
<g id="edge14" class="edge"><title>Node10&#45;&gt;Node6</title>
<path fill="none" stroke="midnightblue" d="M1444.89,-72.9355C1376.82,-59.5695 1247.04,-34.0837 1188.05,-22.4986"/>
<polygon fill="midnightblue" stroke="midnightblue" points="1188.7,-19.0605 1178.21,-20.5679 1187.35,-25.9293 1188.7,-19.0605"/>
</g>
<!-- Node11 -->
<g id="node11" class="node"><title>Node11</title>
<polygon fill="none" stroke="#bfbfbf" points="1483,-6 1483,-25 1542,-25 1542,-6 1483,-6"/>
<text text-anchor="middle" x="1512.5" y="-13" font-family="Helvetica,sans-Serif" font-size="10.00">functional</text>
</g>
<!-- Node10&#45;&gt;Node11 -->
<g id="edge15" class="edge"><title>Node10&#45;&gt;Node11</title>
<path fill="none" stroke="midnightblue" d="M1491.74,-72.7338C1495.34,-62.9877 1501.25,-46.9805 1505.84,-34.5318"/>
<polygon fill="midnightblue" stroke="midnightblue" points="1509.13,-35.7206 1509.31,-25.1273 1502.57,-33.2959 1509.13,-35.7206"/>
</g>
<!-- Node12 -->
<g id="node12" class="node"><title>Node12</title>
<polygon fill="none" stroke="#bfbfbf" points="1420,-6 1420,-25 1465,-25 1465,-6 1420,-6"/>
<text text-anchor="middle" x="1442.5" y="-13" font-family="Helvetica,sans-Serif" font-size="10.00">iosfwd</text>
</g>
<!-- Node10&#45;&gt;Node12 -->
<g id="edge16" class="edge"><title>Node10&#45;&gt;Node12</title>
<path fill="none" stroke="midnightblue" d="M1482.3,-72.7338C1475.19,-62.6953 1463.39,-46.0145 1454.48,-33.4213"/>
<polygon fill="midnightblue" stroke="midnightblue" points="1457.24,-31.2682 1448.61,-25.1273 1451.53,-35.3119 1457.24,-31.2682"/>
</g>
<!-- Node14 -->
<g id="node14" class="node"><title>Node14</title>
<polygon fill="none" stroke="#bfbfbf" points="918,-73 918,-92 977,-92 977,-73 918,-73"/>
<text text-anchor="middle" x="947.5" y="-80" font-family="Helvetica,sans-Serif" font-size="10.00">TObject.h</text>
</g>
<!-- Node13&#45;&gt;Node14 -->
<g id="edge18" class="edge"><title>Node13&#45;&gt;Node14</title>
<path fill="none" stroke="midnightblue" d="M1015.85,-139.734C1003.05,-129.208 981.384,-111.379 965.873,-98.6174"/>
<polygon fill="midnightblue" stroke="midnightblue" points="967.931,-95.7782 957.985,-92.1273 963.484,-101.184 967.931,-95.7782"/>
</g>
<!-- Node22&#45;&gt;Node6 -->
<g id="edge28" class="edge"><title>Node22&#45;&gt;Node6</title>
<path fill="none" stroke="midnightblue" d="M523.742,-212.845C631.952,-207.633 845.522,-193.954 914.5,-165 934.597,-156.564 934.54,-146.35 952.5,-134 1014.02,-91.6989 1091.67,-50.1583 1131.43,-29.6758"/>
<polygon fill="midnightblue" stroke="midnightblue" points="1133.16,-32.7241 1140.46,-25.0502 1129.97,-26.4938 1133.16,-32.7241"/>
</g>
<!-- Node23 -->
<g id="node23" class="node"><title>Node23</title>
<polygon fill="none" stroke="#bfbfbf" points="491.5,-73 491.5,-92 607.5,-92 607.5,-73 491.5,-73"/>
<text text-anchor="middle" x="549.5" y="-80" font-family="Helvetica,sans-Serif" font-size="10.00">Common/Exceptions.h</text>
</g>
<!-- Node22&#45;&gt;Node23 -->
<g id="edge29" class="edge"><title>Node22&#45;&gt;Node23</title>
<path fill="none" stroke="midnightblue" d="M495.545,-201.359C511.618,-193.174 529.213,-181.231 539.5,-165 551.457,-146.135 552.524,-119.833 551.552,-102.265"/>
<polygon fill="midnightblue" stroke="midnightblue" points="555.027,-101.823 550.712,-92.1465 548.051,-102.402 555.027,-101.823"/>
</g>
<!-- Node24 -->
<g id="node24" class="node"><title>Node24</title>
<polygon fill="none" stroke="#bfbfbf" points="391.5,-140 391.5,-159 447.5,-159 447.5,-140 391.5,-140"/>
<text text-anchor="middle" x="419.5" y="-147" font-family="Helvetica,sans-Serif" font-size="10.00">TClass.h</text>
</g>
<!-- Node22&#45;&gt;Node24 -->
<g id="edge30" class="edge"><title>Node22&#45;&gt;Node24</title>
<path fill="none" stroke="midnightblue" d="M450.821,-201.396C444.769,-191.562 436.656,-178.378 430.203,-167.892"/>
<polygon fill="midnightblue" stroke="midnightblue" points="433.072,-165.877 424.85,-159.195 427.111,-169.545 433.072,-165.877"/>
</g>
<!-- Node25 -->
<g id="node25" class="node"><title>Node25</title>
<polygon fill="none" stroke="#bfbfbf" points="314,-140 314,-159 373,-159 373,-140 314,-140"/>
<text text-anchor="middle" x="343.5" y="-147" font-family="Helvetica,sans-Serif" font-size="10.00">TROOT.h</text>
</g>
<!-- Node22&#45;&gt;Node25 -->
<g id="edge31" class="edge"><title>Node22&#45;&gt;Node25</title>
<path fill="none" stroke="midnightblue" d="M434.33,-201.396C414.517,-190.294 387.082,-174.921 367.561,-163.983"/>
<polygon fill="midnightblue" stroke="midnightblue" points="369.116,-160.842 358.682,-159.007 365.695,-166.949 369.116,-160.842"/>
</g>
<!-- Node26 -->
<g id="node26" class="node"><title>Node26</title>
<polygon fill="none" stroke="#bfbfbf" points="466,-140 466,-159 531,-159 531,-140 466,-140"/>
<text text-anchor="middle" x="498.5" y="-147" font-family="Helvetica,sans-Serif" font-size="10.00">TSystem.h</text>
</g>
<!-- Node22&#45;&gt;Node26 -->
<g id="edge32" class="edge"><title>Node22&#45;&gt;Node26</title>
<path fill="none" stroke="midnightblue" d="M467.962,-201.396C473.863,-191.562 481.773,-178.378 488.065,-167.892"/>
<polygon fill="midnightblue" stroke="midnightblue" points="491.14,-169.57 493.283,-159.195 485.137,-165.969 491.14,-169.57"/>
</g>
<!-- Node27 -->
<g id="node27" class="node"><title>Node27</title>
<polygon fill="none" stroke="#bfbfbf" points="167,-140 167,-159 296,-159 296,-140 167,-140"/>
<text text-anchor="middle" x="231.5" y="-147" font-family="Helvetica,sans-Serif" font-size="10.00">boost/filesystem/path.hpp</text>
</g>
<!-- Node22&#45;&gt;Node27 -->
<g id="edge33" class="edge"><title>Node22&#45;&gt;Node27</title>
<path fill="none" stroke="midnightblue" d="M410.308,-201.476C368.729,-189.622 309.926,-172.858 271.27,-161.838"/>
<polygon fill="midnightblue" stroke="midnightblue" points="271.992,-158.404 261.416,-159.029 270.073,-165.136 271.992,-158.404"/>
</g>
<!-- Node22&#45;&gt;Node28 -->
<g id="edge34" class="edge"><title>Node22&#45;&gt;Node28</title>
<path fill="none" stroke="midnightblue" d="M395.262,-204.897C334.109,-194.771 239.503,-179.019 157.5,-165 149.607,-163.651 141.294,-162.215 133.102,-160.793"/>
<polygon fill="midnightblue" stroke="midnightblue" points="133.658,-157.337 123.206,-159.07 132.458,-164.233 133.658,-157.337"/>
</g>
<!-- Node29 -->
<g id="node29" class="node"><title>Node29</title>
<polygon fill="none" stroke="#bfbfbf" points="9.5,-73 9.5,-92 139.5,-92 139.5,-73 9.5,-73"/>
<text text-anchor="middle" x="74.5" y="-80" font-family="Helvetica,sans-Serif" font-size="10.00">InfoLogger/InfoLogger.hxx</text>
</g>
<!-- Node28&#45;&gt;Node29 -->
<g id="edge35" class="edge"><title>Node28&#45;&gt;Node29</title>
<path fill="none" stroke="midnightblue" d="M74.5,-139.734C74.5,-130.183 74.5,-114.618 74.5,-102.283"/>
<polygon fill="midnightblue" stroke="midnightblue" points="78.0001,-102.127 74.5,-92.1273 71.0001,-102.127 78.0001,-102.127"/>
</g>
<!-- Node30&#45;&gt;Node5 -->
<g id="edge39" class="edge"><title>Node30&#45;&gt;Node5</title>
<path fill="none" stroke="midnightblue" d="M1221.31,-206.996C1324.53,-195.897 1491.85,-176.533 1518.5,-165 1538.5,-156.344 1536.65,-143.012 1556.5,-134 1643.52,-94.4852 1698.9,-163.493 1768.5,-98 1785.5,-82.0048 1788.65,-53.988 1788.63,-35.3377"/>
<polygon fill="midnightblue" stroke="midnightblue" points="1792.12,-35.0116 1788.31,-25.1269 1785.13,-35.2322 1792.12,-35.0116"/>
</g>
<!-- Node30&#45;&gt;Node6 -->
<g id="edge37" class="edge"><title>Node30&#45;&gt;Node6</title>
<path fill="none" stroke="midnightblue" d="M1138.85,-206.708C1137.35,-183.603 1134.38,-119.34 1143.5,-67 1145.38,-56.1897 1148.6,-44.3564 1151.47,-34.8634"/>
<polygon fill="midnightblue" stroke="midnightblue" points="1154.81,-35.9091 1154.49,-25.3193 1148.14,-33.8023 1154.81,-35.9091"/>
</g>
<!-- Node30&#45;&gt;Node20 -->
<g id="edge38" class="edge"><title>Node30&#45;&gt;Node20</title>
<path fill="none" stroke="midnightblue" d="M1157.56,-206.869C1180.73,-195.796 1221.13,-176.486 1248.1,-163.598"/>
<polygon fill="midnightblue" stroke="midnightblue" points="1249.85,-166.637 1257.37,-159.167 1246.83,-160.322 1249.85,-166.637"/>
</g>
<!-- Node30&#45;&gt;Node21 -->
<g id="edge40" class="edge"><title>Node30&#45;&gt;Node21</title>
<path fill="none" stroke="midnightblue" d="M1146.24,-206.734C1154.04,-196.598 1167.05,-179.69 1176.76,-167.056"/>
<polygon fill="midnightblue" stroke="midnightblue" points="1179.54,-169.188 1182.86,-159.127 1173.99,-164.92 1179.54,-169.188"/>
</g>
<!-- Node31 -->
<g id="node31" class="node"><title>Node31</title>
<g id="a_node31"><a xlink:href="QualityObject_8h_source.html" target="_top" xlink:title="QualityControl/QualityObject.h">
<polygon fill="none" stroke="black" points="757,-140 757,-159 906,-159 906,-140 757,-140"/>
<text text-anchor="middle" x="831.5" y="-147" font-family="Helvetica,sans-Serif" font-size="10.00">QualityControl/QualityObject.h</text>
</a>
</g>
</g>
<!-- Node30&#45;&gt;Node31 -->
<g id="edge41" class="edge"><title>Node30&#45;&gt;Node31</title>
<path fill="none" stroke="midnightblue" d="M1098.92,-206.936C1043.17,-195.171 942.938,-174.018 882.285,-161.218"/>
<polygon fill="midnightblue" stroke="midnightblue" points="882.679,-157.724 872.172,-159.083 881.234,-164.573 882.679,-157.724"/>
</g>
<!-- Node30&#45;&gt;Node35 -->
<g id="edge49" class="edge"><title>Node30&#45;&gt;Node35</title>
<path fill="none" stroke="midnightblue" d="M1066.04,-206.988C987.173,-197.628 858.269,-181.688 747.5,-165 738.888,-163.703 729.796,-162.235 720.9,-160.745"/>
<polygon fill="midnightblue" stroke="midnightblue" points="721.421,-157.283 710.976,-159.06 720.249,-164.185 721.421,-157.283"/>
</g>
<!-- Node31&#45;&gt;Node14 -->
<g id="edge43" class="edge"><title>Node31&#45;&gt;Node14</title>
<path fill="none" stroke="midnightblue" d="M847.144,-139.734C866.711,-128.769 900.42,-109.881 923.319,-97.0495"/>
<polygon fill="midnightblue" stroke="midnightblue" points="925.091,-100.069 932.104,-92.1273 921.669,-93.9623 925.091,-100.069"/>
</g>
<!-- Node31&#45;&gt;Node23 -->
<g id="edge44" class="edge"><title>Node31&#45;&gt;Node23</title>
<path fill="none" stroke="midnightblue" d="M794.343,-139.936C743.516,-128.22 652.289,-107.193 596.688,-94.3768"/>
<polygon fill="midnightblue" stroke="midnightblue" points="597.269,-90.919 586.739,-92.0834 595.697,-97.7401 597.269,-90.919"/>
</g>
<!-- Node32 -->
<g id="node32" class="node"><title>Node32</title>
<polygon fill="none" stroke="#bfbfbf" points="745,-6 745,-25 780,-25 780,-6 745,-6"/>
<text text-anchor="middle" x="762.5" y="-13" font-family="Helvetica,sans-Serif" font-size="10.00">map</text>
</g>
<!-- Node31&#45;&gt;Node32 -->
<g id="edge42" class="edge"><title>Node31&#45;&gt;Node32</title>
<path fill="none" stroke="midnightblue" d="M833.925,-139.823C837.772,-124.256 843.663,-90.9748 831.5,-67 822.657,-49.5686 804.656,-36.7089 789.258,-28.3296"/>
<polygon fill="midnightblue" stroke="midnightblue" points="790.614,-25.0927 780.112,-23.6904 787.447,-31.3355 790.614,-25.0927"/>
</g>
<!-- Node33 -->
<g id="node33" class="node"><title>Node33</title>
<g id="a_node33"><a xlink:href="Quality_8h.html" target="_top" xlink:title="QualityControl/Quality.h">
<polygon fill="none" stroke="black" points="702,-73 702,-92 823,-92 823,-73 702,-73"/>
<text text-anchor="middle" x="762.5" y="-80" font-family="Helvetica,sans-Serif" font-size="10.00">QualityControl/Quality.h</text>
</a>
</g>
</g>
<!-- Node31&#45;&gt;Node33 -->
<g id="edge45" class="edge"><title>Node31&#45;&gt;Node33</title>
<path fill="none" stroke="midnightblue" d="M822.194,-139.734C811.228,-129.403 792.793,-112.037 779.306,-99.3315"/>
<polygon fill="midnightblue" stroke="midnightblue" points="781.337,-96.4366 771.658,-92.1273 776.537,-101.532 781.337,-96.4366"/>
</g>
<!-- Node33&#45;&gt;Node6 -->
<g id="edge47" class="edge"><title>Node33&#45;&gt;Node6</title>
<path fill="none" stroke="midnightblue" d="M814.546,-72.9355C898.064,-59.192 1059.45,-32.6343 1126.81,-21.5508"/>
<polygon fill="midnightblue" stroke="midnightblue" points="1127.48,-24.9866 1136.78,-19.9092 1126.35,-18.0795 1127.48,-24.9866"/>
</g>
<!-- Node33&#45;&gt;Node32 -->
<g id="edge48" class="edge"><title>Node33&#45;&gt;Node32</title>
<path fill="none" stroke="midnightblue" d="M762.5,-72.7338C762.5,-63.1826 762.5,-47.6183 762.5,-35.2829"/>
<polygon fill="midnightblue" stroke="midnightblue" points="766,-35.1273 762.5,-25.1273 759,-35.1273 766,-35.1273"/>
</g>
<!-- Node34 -->
<g id="node34" class="node"><title>Node34</title>
<polygon fill="none" stroke="#bfbfbf" points="639.5,-6 639.5,-25 695.5,-25 695.5,-6 639.5,-6"/>
<text text-anchor="middle" x="667.5" y="-13" font-family="Helvetica,sans-Serif" font-size="10.00">Rtypes.h</text>
</g>
<!-- Node33&#45;&gt;Node34 -->
<g id="edge46" class="edge"><title>Node33&#45;&gt;Node34</title>
<path fill="none" stroke="midnightblue" d="M749.688,-72.7338C734.019,-62.0131 707.278,-43.7165 688.566,-30.9137"/>
<polygon fill="midnightblue" stroke="midnightblue" points="690.339,-27.8856 680.109,-25.1273 686.386,-33.6628 690.339,-27.8856"/>
</g>
<!-- Node35&#45;&gt;Node6 -->
<g id="edge50" class="edge"><title>Node35&#45;&gt;Node6</title>
<path fill="none" stroke="midnightblue" d="M695.047,-139.941C729.016,-130.51 784.512,-114.483 831.5,-98 866.312,-85.7885 873.164,-77.5994 908.5,-67 985.683,-43.8482 1079.51,-28.0226 1126.92,-20.8568"/>
<polygon fill="midnightblue" stroke="midnightblue" points="1127.48,-24.3126 1136.85,-19.3802 1126.45,-17.3887 1127.48,-24.3126"/>
</g>
<!-- Node35&#45;&gt;Node14 -->
<g id="edge53" class="edge"><title>Node35&#45;&gt;Node14</title>
<path fill="none" stroke="midnightblue" d="M711.684,-139.99C760.41,-131.003 837.714,-115.703 903.5,-98 906.684,-97.1431 909.977,-96.1888 913.262,-95.1902"/>
<polygon fill="midnightblue" stroke="midnightblue" points="914.5,-98.4696 922.978,-92.1148 912.388,-91.796 914.5,-98.4696"/>
</g>
<!-- Node35&#45;&gt;Node23 -->
<g id="edge54" class="edge"><title>Node35&#45;&gt;Node23</title>
<path fill="none" stroke="midnightblue" d="M648.125,-139.734C628.981,-128.818 596.062,-110.049 573.564,-97.2209"/>
<polygon fill="midnightblue" stroke="midnightblue" points="575.052,-94.04 564.631,-92.1273 571.584,-100.121 575.052,-94.04"/>
</g>
<!-- Node35&#45;&gt;Node32 -->
<g id="edge51" class="edge"><title>Node35&#45;&gt;Node32</title>
<path fill="none" stroke="midnightblue" d="M664.829,-139.843C667.613,-124.018 675.281,-89.9421 692.5,-67 704.121,-51.5168 721.839,-38.8001 736.542,-30.0007"/>
<polygon fill="midnightblue" stroke="midnightblue" points="738.279,-33.0389 745.225,-25.0383 734.806,-26.9614 738.279,-33.0389"/>
</g>
<!-- Node35&#45;&gt;Node34 -->
<g id="edge52" class="edge"><title>Node35&#45;&gt;Node34</title>
<path fill="none" stroke="midnightblue" d="M662.361,-139.924C660.547,-125.058 657.41,-93.5506 659.5,-67 660.341,-56.3145 662.169,-44.4739 663.865,-34.9452"/>
<polygon fill="midnightblue" stroke="midnightblue" points="667.321,-35.5037 665.729,-25.0292 660.442,-34.2104 667.321,-35.5037"/>
</g>
</g>
</svg>
